<svg id="visual" viewBox="0 0 1563 292" width="1563" height="292" xmlns="http://www.w3.org/2000/svg" xmlns:xlink="http://www.w3.org/1999/xlink" version="1.1"><g fill="#fff"><path d="M0 -21.7L4.9 -6.7L20.6 -6.7L7.9 2.6L12.8 17.6L0 8.3L-12.8 17.6L-7.9 2.6L-20.6 -6.7L-4.9 -6.7Z" transform="translate(849 157)"></path><path d="M0 -15.1L3.4 -4.7L14.4 -4.7L5.5 1.8L8.9 12.2L0 5.8L-8.9 12.2L-5.5 1.8L-14.4 -4.7L-3.4 -4.7Z" transform="translate(1549 273)"></path><path d="M0 -15.1L3.4 -4.7L14.4 -4.7L5.5 1.8L8.9 12.2L0 5.8L-8.9 12.2L-5.5 1.8L-14.4 -4.7L-3.4 -4.7Z" transform="translate(1332 56)"></path><path d="M0 -16L3.6 -5L15.3 -5L5.8 1.9L9.4 13L0 6.1L-9.4 13L-5.8 1.9L-15.3 -5L-3.6 -5Z" transform="translate(736 259)"></path><path d="M0 -16L3.6 -5L15.3 -5L5.8 1.9L9.4 13L0 6.1L-9.4 13L-5.8 1.9L-15.3 -5L-3.6 -5Z" transform="translate(1098 247)"></path><path d="M0 -14.2L3.2 -4.4L13.5 -4.4L5.1 1.7L8.3 11.5L0 5.4L-8.3 11.5L-5.1 1.7L-13.5 -4.4L-3.2 -4.4Z" transform="translate(624 152)"></path><path d="M0 -17.9L4 -5.5L17.1 -5.5L6.5 2.1L10.5 14.5L0 6.8L-10.5 14.5L-6.5 2.1L-17.1 -5.5L-4 -5.5Z" transform="translate(1176 155)"></path><path d="M0 -18.9L4.2 -5.8L18 -5.8L6.9 2.2L11.1 15.3L0 7.2L-11.1 15.3L-6.9 2.2L-18 -5.8L-4.2 -5.8Z" transform="translate(1402 246)"></path><path d="M0 -17L3.8 -5.2L16.2 -5.2L6.2 2L10 13.7L0 6.5L-10 13.7L-6.2 2L-16.2 -5.2L-3.8 -5.2Z" transform="translate(795 279)"></path><path d="M0 -15.1L3.4 -4.7L14.4 -4.7L5.5 1.8L8.9 12.2L0 5.8L-8.9 12.2L-5.5 1.8L-14.4 -4.7L-3.4 -4.7Z" transform="translate(195 36)"></path><path d="M0 -15.1L3.4 -4.7L14.4 -4.7L5.5 1.8L8.9 12.2L0 5.8L-8.9 12.2L-5.5 1.8L-14.4 -4.7L-3.4 -4.7Z" transform="translate(1464 260)"></path><path d="M0 -16L3.6 -5L15.3 -5L5.8 1.9L9.4 13L0 6.1L-9.4 13L-5.8 1.9L-15.3 -5L-3.6 -5Z" transform="translate(181 212)"></path><path d="M0 -16L3.6 -5L15.3 -5L5.8 1.9L9.4 13L0 6.1L-9.4 13L-5.8 1.9L-15.3 -5L-3.6 -5Z" transform="translate(887 11)"></path><path d="M0 -15.1L3.4 -4.7L14.4 -4.7L5.5 1.8L8.9 12.2L0 5.8L-8.9 12.2L-5.5 1.8L-14.4 -4.7L-3.4 -4.7Z" transform="translate(151 146)"></path><path d="M0 -19.8L4.4 -6.1L18.9 -6.1L7.2 2.3L11.7 16L0 7.6L-11.7 16L-7.2 2.3L-18.9 -6.1L-4.4 -6.1Z" transform="translate(684 73)"></path><path d="M0 -19.8L4.4 -6.1L18.9 -6.1L7.2 2.3L11.7 16L0 7.6L-11.7 16L-7.2 2.3L-18.9 -6.1L-4.4 -6.1Z" transform="translate(72 209)"></path><path d="M0 -16L3.6 -5L15.3 -5L5.8 1.9L9.4 13L0 6.1L-9.4 13L-5.8 1.9L-15.3 -5L-3.6 -5Z" transform="translate(381 60)"></path><path d="M0 -17L3.8 -5.2L16.2 -5.2L6.2 2L10 13.7L0 6.5L-10 13.7L-6.2 2L-16.2 -5.2L-3.8 -5.2Z" transform="translate(1158 265)"></path></g></svg>