<svg id="visual" viewBox="0 0 1563 292" width="1563" height="292" xmlns="http://www.w3.org/2000/svg" xmlns:xlink="http://www.w3.org/1999/xlink" version="1.1"><path d="M0 191L29 190.2C58 189.3 116 187.7 173.8 180.7C231.7 173.7 289.3 161.3 347.2 154.8C405 148.3 463 147.7 521 155.5C579 163.3 637 179.7 694.8 180.5C752.7 181.3 810.3 166.7 868.2 157C926 147.3 984 142.7 1042 143.8C1100 145 1158 152 1215.8 160.5C1273.7 169 1331.3 179 1389.2 180C1447 181 1505 173 1534 169L1563 165L1563 293L1534 293C1505 293 1447 293 1389.2 293C1331.3 293 1273.7 293 1215.8 293C1158 293 1100 293 1042 293C984 293 926 293 868.2 293C810.3 293 752.7 293 694.8 293C637 293 579 293 521 293C463 293 405 293 347.2 293C289.3 293 231.7 293 173.8 293C116 293 58 293 29 293L0 293Z" fill="#7e2e7c"></path><path d="M0 190L29 187.2C58 184.3 116 178.7 173.8 176.8C231.7 175 289.3 177 347.2 177C405 177 463 175 521 178C579 181 637 189 694.8 196.8C752.7 204.7 810.3 212.3 868.2 208C926 203.7 984 187.3 1042 179.2C1100 171 1158 171 1215.8 177.3C1273.7 183.7 1331.3 196.3 1389.2 202.5C1447 208.7 1505 208.3 1534 208.2L1563 208L1563 293L1534 293C1505 293 1447 293 1389.2 293C1331.3 293 1273.7 293 1215.8 293C1158 293 1100 293 1042 293C984 293 926 293 868.2 293C810.3 293 752.7 293 694.8 293C637 293 579 293 521 293C463 293 405 293 347.2 293C289.3 293 231.7 293 173.8 293C116 293 58 293 29 293L0 293Z" fill="#68266d"></path><path d="M0 219L29 213.3C58 207.7 116 196.3 173.8 198.5C231.7 200.7 289.3 216.3 347.2 219.2C405 222 463 212 521 204C579 196 637 190 694.8 190.7C752.7 191.3 810.3 198.7 868.2 206.5C926 214.3 984 222.7 1042 227C1100 231.3 1158 231.7 1215.8 229.2C1273.7 226.7 1331.3 221.3 1389.2 214.8C1447 208.3 1505 200.7 1534 196.8L1563 193L1563 293L1534 293C1505 293 1447 293 1389.2 293C1331.3 293 1273.7 293 1215.8 293C1158 293 1100 293 1042 293C984 293 926 293 868.2 293C810.3 293 752.7 293 694.8 293C637 293 579 293 521 293C463 293 405 293 347.2 293C289.3 293 231.7 293 173.8 293C116 293 58 293 29 293L0 293Z" fill="#541e5e"></path><path d="M0 218L29 223.2C58 228.3 116 238.7 173.8 237.8C231.7 237 289.3 225 347.2 219.2C405 213.3 463 213.7 521 217.7C579 221.7 637 229.3 694.8 233.3C752.7 237.3 810.3 237.7 868.2 239.8C926 242 984 246 1042 244.8C1100 243.7 1158 237.3 1215.8 236.8C1273.7 236.3 1331.3 241.7 1389.2 238.7C1447 235.7 1505 224.3 1534 218.7L1563 213L1563 293L1534 293C1505 293 1447 293 1389.2 293C1331.3 293 1273.7 293 1215.8 293C1158 293 1100 293 1042 293C984 293 926 293 868.2 293C810.3 293 752.7 293 694.8 293C637 293 579 293 521 293C463 293 405 293 347.2 293C289.3 293 231.7 293 173.8 293C116 293 58 293 29 293L0 293Z" fill="#40164e"></path><path d="M0 234L29 236.3C58 238.7 116 243.3 173.8 247.3C231.7 251.3 289.3 254.7 347.2 257.3C405 260 463 262 521 260.5C579 259 637 254 694.8 251.8C752.7 249.7 810.3 250.3 868.2 251.3C926 252.3 984 253.7 1042 251.3C1100 249 1158 243 1215.8 238.8C1273.7 234.7 1331.3 232.3 1389.2 235.7C1447 239 1505 248 1534 252.5L1563 257L1563 293L1534 293C1505 293 1447 293 1389.2 293C1331.3 293 1273.7 293 1215.8 293C1158 293 1100 293 1042 293C984 293 926 293 868.2 293C810.3 293 752.7 293 694.8 293C637 293 579 293 521 293C463 293 405 293 347.2 293C289.3 293 231.7 293 173.8 293C116 293 58 293 29 293L0 293Z" fill="#2e0e3e"></path><path d="M0 255L29 255C58 255 116 255 173.8 254.2C231.7 253.3 289.3 251.7 347.2 252.3C405 253 463 256 521 260C579 264 637 269 694.8 269.3C752.7 269.7 810.3 265.3 868.2 263.5C926 261.7 984 262.3 1042 263.7C1100 265 1158 267 1215.8 270.2C1273.7 273.3 1331.3 277.7 1389.2 278.8C1447 280 1505 278 1534 277L1563 276L1563 293L1534 293C1505 293 1447 293 1389.2 293C1331.3 293 1273.7 293 1215.8 293C1158 293 1100 293 1042 293C984 293 926 293 868.2 293C810.3 293 752.7 293 694.8 293C637 293 579 293 521 293C463 293 405 293 347.2 293C289.3 293 231.7 293 173.8 293C116 293 58 293 29 293L0 293Z" fill="#1e042f"></path></svg>