<svg id="visual" viewBox="0 0 1563 292" width="1563" height="292" xmlns="http://www.w3.org/2000/svg" xmlns:xlink="http://www.w3.org/1999/xlink" version="1.1"><rect x="0" y="0" width="1563" height="292" fill="#002233"></rect><path d="M0 243L37.2 238C74.3 233 148.7 223 223.2 224.7C297.7 226.3 372.3 239.7 446.8 246.2C521.3 252.7 595.7 252.3 670 241C744.3 229.7 818.7 207.3 893 197.5C967.3 187.7 1041.7 190.3 1116.2 191.2C1190.7 192 1265.3 191 1339.8 199.8C1414.3 208.7 1488.7 227.3 1525.8 236.7L1563 246L1563 293L1525.8 293C1488.7 293 1414.3 293 1339.8 293C1265.3 293 1190.7 293 1116.2 293C1041.7 293 967.3 293 893 293C818.7 293 744.3 293 670 293C595.7 293 521.3 293 446.8 293C372.3 293 297.7 293 223.2 293C148.7 293 74.3 293 37.2 293L0 293Z" fill="#0066FF" stroke-linecap="round" stroke-linejoin="miter"></path></svg>